<?xml version="1.0" encoding="utf-8"?>
<!-- Generator: Adobe Illustrator 16.0.0, SVG Export Plug-In . SVG Version: 6.00 Build 0)  -->
<!DOCTYPE svg PUBLIC "-//W3C//DTD SVG 1.1//EN" "http://www.w3.org/Graphics/SVG/1.1/DTD/svg11.dtd">
<svg version="1.1" id="Layer_1" xmlns="http://www.w3.org/2000/svg" xmlns:xlink="http://www.w3.org/1999/xlink" x="0px" y="0px"
	 width="270px" height="270px" viewBox="0 0 270 270" enable-background="new 0 0 270 270" xml:space="preserve">
<g>
	<g>
		<polygon fill="#00A9AC" points="96.563,206.25 70.313,225.938 83.437,166.875 103.125,140.625 96.563,88.125 103.125,55.312 
			129.375,22.5 142.5,22.5 168.75,55.312 175.313,88.125 168.75,140.625 188.436,166.875 201.563,225.938 175.313,206.25 
			162.188,180 155.625,206.25 116.25,206.25 109.688,180 		"/>
		<polygon fill="#EB008B" points="129.375,239.062 122.813,225.938 109.688,232.5 116.25,212.812 155.625,212.812 162.188,232.5 
			149.063,225.938 142.5,239.062 135.938,225.938 		"/>
		<polygon fill="#F89F1B" points="142.5,101.25 129.375,101.25 116.25,88.125 116.25,75 129.375,61.875 142.5,61.875 155.625,75 
			155.625,88.125 		"/>
	</g>
	<polygon fill="#F89F1B" points="103.125,140.625 88.36,160.312 183.516,160.312 168.75,140.625 172.266,112.5 99.61,112.5 	"/>
	<g>
		<path fill="#FFC50A" d="M270,135c0-7.667-0.649-15.181-1.878-22.5h-95.856l-3.516,28.125l14.766,19.688h84.104
			C269.175,152.112,270,143.652,270,135z"/>
		<path fill="#FFC50A" d="M99.61,112.5H1.877C0.649,119.818,0,127.333,0,135c0,8.653,0.824,17.113,2.379,25.313h85.979
			l14.767-19.688L99.61,112.5z"/>
	</g>
	<path fill="#AA4A9B" d="M135,0C60.44,0,0,60.441,0,135c0,74.559,60.44,135,135,135c74.558,0,135-60.441,135-135
		C270,60.441,209.558,0,135,0z M135,255.938c-66.792,0-120.937-54.146-120.937-120.938C14.063,68.207,68.208,14.062,135,14.062
		S255.938,68.207,255.938,135C255.938,201.791,201.792,255.938,135,255.938z"/>
	<g>
		<path fill="#EB008B" d="M268.123,112.5H253.57c1.55,7.729,2.368,15.722,2.368,23.907c0,8.184-0.818,16.178-2.368,23.906h14.05
			c1.556-8.2,2.381-16.66,2.381-25.313C270,127.333,269.351,119.818,268.123,112.5z"/>
		<path fill="#EB008B" d="M14.063,136.406c0-8.185,0.817-16.178,2.367-23.907H1.877C0.649,119.818,0,127.333,0,135
			c0,8.653,0.824,17.113,2.379,25.313H16.43C14.88,152.584,14.063,144.59,14.063,136.406z"/>
	</g>
	<rect x="19.688" y="127.186" fill="none" width="230.625" height="19.687"/>
	<text transform="matrix(1 0 0 1 22.2124 144.7373)" fill="#404041" font-family="'VenusRising-Regular'" font-size="23.75">SPACETEAM</text>
</g>
</svg>
